<svg xmlns="http://www.w3.org/2000/svg" viewBox="0 0 64 64" fill="none">
  <!-- Fundo arredondado -->
  <rect width="64" height="64" rx="14" fill="#1e40af"/>

  <!-- Corpo do carro -->
  <path d="M10 38 L14 26 Q16 22 20 22 L44 22 Q48 22 50 26 L54 38 L54 44 Q54 46 52 46 L48 46 Q48 44 46 44 L18 44 Q16 44 16 46 L12 46 Q10 46 10 44 Z" fill="white"/>

  <!-- Teto / janelas -->
  <path d="M20 22 L24 14 Q25 12 28 12 L36 12 Q39 12 40 14 L44 22 Z" fill="#93c5fd"/>
  <path d="M22 22 L25.5 15 Q26 13.5 28 13.5 L36 13.5 Q38 13.5 38.5 15 L42 22 Z" fill="#bfdbfe" opacity="0.6"/>

  <!-- Roda traseira -->
  <circle cx="20" cy="46" r="5" fill="#1e293b"/>
  <circle cx="20" cy="46" r="2.5" fill="#94a3b8"/>

  <!-- Roda dianteira -->
  <circle cx="44" cy="46" r="5" fill="#1e293b"/>
  <circle cx="44" cy="46" r="2.5" fill="#94a3b8"/>

  <!-- Farol -->
  <rect x="50" y="34" width="4" height="3" rx="1" fill="#fde68a"/>
  <!-- Lanterna -->
  <rect x="10" y="34" width="3" height="3" rx="1" fill="#fca5a5"/>
</svg>
